<svg width="879" height="879" viewBox="0 0 879 879" fill="none" xmlns="http://www.w3.org/2000/svg">
<path d="M879 439.5C879 485.619 871.741 531.451 857.489 575.313L439.5 439.5H879Z" fill="#7AC8FF"/>
<path d="M795.063 697.832C767.955 735.143 735.143 767.955 697.831 795.063L439.5 439.5L795.063 697.832Z" fill="#7AC8FF"/>
<path d="M575.313 857.489C531.451 871.741 485.619 879 439.5 879L439.5 439.5L575.313 857.489Z" fill="#7AC8FF"/>
<path d="M303.687 857.489C259.825 843.238 218.479 822.171 181.168 795.063L439.5 439.5L303.687 857.489Z" fill="#7AC8FF"/>
<path d="M83.9369 697.832C56.8288 660.52 35.7622 619.175 21.5106 575.313L439.5 439.5L83.9369 697.832Z" fill="#7AC8FF"/>
<path d="M0 439.5C4.03187e-06 393.381 7.25905 347.549 21.5107 303.687L439.5 439.5L0 439.5Z" fill="#7AC8FF"/>
<path d="M83.937 181.168C111.045 143.857 143.857 111.045 181.168 83.937L439.5 439.5L83.937 181.168Z" fill="#7AC8FF"/>
<path d="M303.687 21.5106C347.549 7.25903 393.381 -6.0478e-06 439.5 0L439.5 439.5L303.687 21.5106Z" fill="#7AC8FF"/>
<path d="M575.313 21.5108C619.175 35.7624 660.52 56.829 697.832 83.9372L439.5 439.5L575.313 21.5108Z" fill="#7AC8FF"/>
<path d="M795.063 181.169C822.171 218.48 843.238 259.825 857.489 303.687L439.5 439.5L795.063 181.169Z" fill="#7AC8FF"/>
</svg>
